<svg width="238" height="77" viewBox="0 0 238 77" fill="none" xmlns="http://www.w3.org/2000/svg">
<path d="M235.966 52.0858C235.562 52.0858 235.194 52.3472 235.004 52.8937C232.568 59.844 229.277 63.9786 226.569 63.9786C225.012 63.9786 224.382 62.244 224.382 59.5233C224.382 52.7155 228.458 38.2802 230.513 31.6982C230.751 30.9022 230.905 30.1893 230.905 29.5834C230.905 27.6706 229.86 26.732 227.27 26.732C224.478 26.732 221.472 27.825 218.549 32.9457C217.539 28.431 214.486 26.4587 210.22 26.4587C205.29 26.4587 200.526 29.6309 196.605 34.7754C192.684 39.9198 188.074 41.6069 184.605 40.7752C187.1 34.6684 188.027 30.1062 188.027 26.7201C188.027 21.4094 185.401 18.2015 181.16 18.2015C174.708 18.2015 170.99 24.3558 170.99 30.8309C170.99 35.8328 173.259 40.9772 178.249 43.4722C174.067 52.9294 167.96 61.4836 165.643 61.4836C162.649 61.4836 161.77 46.8345 161.937 36.3555C162.043 30.3438 162.542 30.0349 162.542 28.2171C162.542 27.1716 161.865 26.4587 159.145 26.4587C152.8 26.4587 150.84 31.8289 150.543 37.9951C150.448 40.3356 150.079 42.6643 149.45 44.9216C146.8 54.3788 141.335 61.5549 137.771 61.5549C136.119 61.5549 135.668 59.9034 135.668 57.7411C135.668 50.9334 139.482 42.4267 139.482 35.1674C139.482 29.8329 137.141 26.4587 132.733 26.4587C127.541 26.4587 120.674 32.6368 114.175 44.2088C116.314 35.3456 117.193 26.7676 110.861 26.7676C109.482 26.7914 108.14 27.1359 106.928 27.7894C106.096 28.1815 105.585 29.0369 105.645 29.9517C106.251 39.3851 98.0411 63.5509 90.2591 63.5509C88.8453 63.5509 88.1562 62.0182 88.1562 59.547C88.1562 52.7274 92.2195 38.3277 94.263 31.7339C94.5244 30.8784 94.6669 30.1418 94.6669 29.5002C94.6669 27.6943 93.5501 26.7676 91.0195 26.7676C88.2393 26.7676 85.2216 27.825 82.3108 32.9457C81.289 28.431 78.2356 26.4587 73.9704 26.4587C66.9726 26.4587 59.1549 33.8605 55.7214 43.5078C51.1235 56.3867 41.8564 68.826 29.3814 68.826C18.059 68.826 12.0829 59.4044 12.0829 44.5177C12.0829 23.0252 27.8607 5.46521 39.5634 5.46521C45.1593 5.46521 47.8325 9.02948 47.8325 14.4947C47.8325 21.1123 44.1375 24.1895 44.1375 26.7082C44.1375 27.4805 44.7791 28.2409 46.0503 28.2409C51.1353 28.2409 57.1233 22.2648 57.1233 14.1145C57.1233 5.96421 50.5057 0 38.803 0C19.4609 0 0 19.4609 0 44.3989C0 64.24 9.78985 76.204 26.7201 76.204C38.2683 76.204 48.3552 67.2221 53.7967 56.7431C54.4145 65.4281 58.3589 69.9666 64.3707 69.9666C69.717 69.9666 74.0417 66.7825 77.3446 61.1866C78.6158 67.0438 81.99 69.9072 86.3741 69.9072C91.3997 69.9072 95.6055 66.7231 99.6094 60.8064C99.55 65.4518 100.607 69.824 104.635 69.824C106.536 69.824 108.805 69.3844 109.209 67.7211C113.451 50.1849 123.93 35.8684 127.137 35.8684C128.088 35.8684 128.349 36.7832 128.349 37.8644C128.349 42.6286 124.987 52.3947 124.987 58.6322C124.987 65.3686 127.85 69.824 133.767 69.824C140.325 69.824 146.99 61.7925 151.434 50.0542C152.824 61.0202 155.83 69.8715 160.535 69.8715C166.309 69.8715 176.562 57.7174 182.776 44.8504C185.211 45.1593 188.87 45.0761 192.387 42.593C190.89 46.383 190.011 50.5294 190.011 54.6758C190.011 66.6161 195.714 69.9666 200.621 69.9666C205.955 69.9666 210.28 66.7825 213.595 61.1866C214.688 66.236 217.48 69.8953 222.612 69.8953C230.644 69.8953 237.618 61.6856 237.618 54.9491C237.618 53.167 236.857 52.0858 235.966 52.0858ZM69.2656 63.3489C66.0221 63.3489 64.7508 60.0816 64.7508 55.2105C64.7508 46.7513 70.5368 32.6249 76.6555 32.6249C79.3287 32.6249 80.3386 35.7734 80.3386 39.6228C80.3386 48.2126 74.8377 63.3489 69.2656 63.3489ZM180.364 38.102C178.427 35.7971 177.726 32.6606 177.726 29.8686C177.726 26.4231 178.986 23.5123 180.494 23.5123C182.003 23.5123 182.467 24.9974 182.467 27.0647C182.467 30.522 181.231 35.5714 180.364 38.102ZM205.516 63.3489C202.272 63.3489 201.001 59.5945 201.001 55.2105C201.001 47.0483 206.787 32.6249 212.953 32.6249C215.626 32.6249 216.577 35.7496 216.577 39.6228C216.577 48.2126 211.171 63.3489 205.516 63.3489Z" fill="white"/>
</svg>
